<svg xmlns="http://www.w3.org/2000/svg" width="1600" height="900" viewBox="0 0 1600 900">
 <defs><filter id="s"><feDropShadow dx="0" dy="5" stdDeviation="10" flood-color="#17223a" flood-opacity=".10"/></filter><style>text{font-family:Tahoma,"Segoe UI",Arial,sans-serif;fill:#edf6ff}.w{fill:#fff}.m{fill:#a9bad0}.sm{font-size:12px}.xs{font-size:10px}.b{font-size:14px;font-weight:700}.t{font-size:25px;font-weight:900}.mono{font-family:Consolas,monospace}</style></defs>
 <rect width="1600" height="900" fill="#07111f"/><rect width="1600" height="82" fill="#17223a"/><rect x="1528" y="18" width="46" height="46" rx="13" fill="#00a884"/><text x="1551" y="48" text-anchor="middle" class="w b">IP</text><text x="1510" y="38" text-anchor="end" class="w" font-size="16" font-weight="900">EMS IPAM</text><text x="1510" y="57" text-anchor="end" fill="#bac6da" class="xs">توسعه و مدیریت IP</text>
 <rect x="1050" y="20" width="430" height="42" rx="11" fill="#111b31" stroke="#394760"/><rect x="1058" y="25" width="100" height="32" rx="8" fill="#00a884"/><text x="1423" y="46" text-anchor="middle" fill="#c9d8ea" class="b">شرکت‌ها</text><text x="1317" y="46" text-anchor="middle" fill="#c9d8ea" class="b">مدیریت IP</text><text x="1210" y="46" text-anchor="middle" fill="#c9d8ea" class="b">تجهیزات</text><text x="1108" y="46" text-anchor="middle" class="w b">رادیوها</text><rect x="610" y="20" width="410" height="42" rx="10" fill="#202d47" stroke="#3b4963"/><text x="995" y="46" text-anchor="end" fill="#a9bad0" class="sm">جست‌وجوی AP، Station، SSID یا MAC…</text>
 <text x="1545" y="122" text-anchor="end" class="m sm">مدیریت تجهیزات</text><text x="1545" y="159" text-anchor="end" class="t">رادیوها و ارتباط AP / Station</text><text x="1545" y="186" text-anchor="end" class="m sm">وضعیت آنلاین، سیگنال و Stationها از رابط ساده API میکروتیک به‌روزرسانی می‌شود.</text><rect x="54" y="126" width="120" height="36" rx="9" fill="#103547" stroke="#b9c7f3"/><text x="114" y="149" text-anchor="middle" fill="#00a884" class="b">نمای درختی</text><rect x="182" y="126" width="120" height="36" rx="9" fill="#0e1b2e" stroke="#29415d"/><text x="242" y="149" text-anchor="middle" class="sm">نمای فهرست</text>
 <rect x="54" y="212" width="1491" height="76" rx="14" fill="#0e1b2e" stroke="#29415d"/><text x="1515" y="240" text-anchor="end" class="b">ثبت سریع رادیو</text><text x="1515" y="264" text-anchor="end" class="m xs">IP و نوع رادیو را مشخص کنید؛ جزئیات و پایش ساده در فرم تجهیز تکمیل می‌شود.</text><rect x="760" y="229" width="220" height="40" rx="9" fill="#0e1b2e" stroke="#d1d9e5"/><text x="780" y="254" class="mono sm">10.42.3.14</text><rect x="990" y="229" width="150" height="40" rx="9" fill="#0e1b2e" stroke="#d1d9e5"/><text x="1065" y="254" text-anchor="middle" class="b">Station</text><rect x="1150" y="229" width="210" height="40" rx="9" fill="#0e1b2e" stroke="#d1d9e5"/><text x="1255" y="254" text-anchor="middle" class="sm">AP-Qazvin-Main</text><rect x="1370" y="229" width="145" height="40" rx="9" fill="#00a884"/><text x="1442" y="254" text-anchor="middle" class="w b">ادامه</text>
 <g transform="translate(54 310)"><rect width="350" height="74" rx="13" fill="#0e1b2e" stroke="#29415d"/><text x="322" y="25" text-anchor="end" class="m sm">کل رادیوها</text><text x="322" y="56" text-anchor="end" font-size="22" font-weight="900">۶</text></g><g transform="translate(420 310)"><rect width="350" height="74" rx="13" fill="#0e1b2e" stroke="#29415d"/><text x="322" y="25" text-anchor="end" class="m sm">Access Point</text><text x="322" y="56" text-anchor="end" font-size="22" font-weight="900">۲</text></g><g transform="translate(786 310)"><rect width="350" height="74" rx="13" fill="#0e1b2e" stroke="#29415d"/><text x="322" y="25" text-anchor="end" class="m sm">Station</text><text x="322" y="56" text-anchor="end" font-size="22" font-weight="900">۴</text></g><g transform="translate(1152 310)"><rect width="393" height="74" rx="13" fill="#0e1b2e" stroke="#29415d"/><text x="365" y="25" text-anchor="end" class="m sm">پایش آنلاین</text><text x="365" y="56" text-anchor="end" font-size="22" font-weight="900">۵</text></g>
 <rect x="54" y="406" width="1491" height="425" rx="16" fill="#0e1b2e" stroke="#29415d"/><text x="1515" y="442" text-anchor="end" font-size="17" font-weight="900">AP-Qazvin-Main</text><text x="1355" y="442" text-anchor="end" class="mono sm m">10.42.3.11</text><rect x="1120" y="422" width="93" height="28" rx="14" fill="#10382d"/><circle cx="1195" cy="436" r="4" fill="#20a86b"/><text x="1175" y="440" text-anchor="middle" fill="#5df2ad" class="xs">آنلاین</text><path d="M54 462h1491" stroke="#29415d"/>
 <g transform="translate(595 490)"><rect width="410" height="88" rx="17" fill="#18243f" stroke="#6f88e5" stroke-width="2"/><rect x="24" y="20" width="50" height="50" rx="13" fill="#00a884"/><text x="49" y="51" text-anchor="middle" class="w b">AP</text><text x="92" y="32" class="b">AP-Qazvin-Main</text><text x="92" y="54" class="mono sm">10.42.3.11</text><text x="92" y="73" fill="#76f7d5" class="xs">Identity: AP-HQ-01</text><text x="382" y="39" text-anchor="end" class="mono xs">CPU 8% • Uptime 2w4d</text><text x="382" y="61" text-anchor="end" class="mono xs">RouterOS 7.20 • 2 Station</text></g><path d="M800 578v44M330 622h940M330 622v30M800 622v30M1270 622v30" fill="none" stroke="#9baad0" stroke-width="2"/>
 <g transform="translate(172 652)"><rect width="316" height="132" rx="14" fill="#0e1b2e" stroke="#d3dbe7"/><rect width="316" height="5" rx="3" fill="#20a86b"/><rect x="20" y="24" width="44" height="44" rx="11" fill="#18243f"/><text x="42" y="52" text-anchor="middle" fill="#00a884" class="b">ST</text><text x="82" y="34" class="b">انبار</text><text x="82" y="55" class="mono xs">10.42.3.12</text><rect x="211" y="25" width="82" height="24" rx="12" fill="#10382d"/><text x="252" y="41" text-anchor="middle" fill="#5df2ad" class="xs">آنلاین</text><text x="293" y="80" text-anchor="end" class="mono b">-۵۵ dBm</text><text x="293" y="104" text-anchor="end" class="m xs">RX 144 Mbps • 18d4h</text></g>
 <g transform="translate(642 652)"><rect width="316" height="132" rx="14" fill="#0e1b2e" stroke="#d3dbe7"/><rect width="316" height="5" rx="3" fill="#e0a12b"/><rect x="20" y="24" width="44" height="44" rx="11" fill="#18243f"/><text x="42" y="52" text-anchor="middle" fill="#00a884" class="b">ST</text><text x="82" y="34" class="b">ساختمان اداری</text><text x="82" y="55" class="mono xs">10.42.3.13</text><rect x="190" y="25" width="103" height="24" rx="12" fill="#392d13"/><text x="241" y="41" text-anchor="middle" fill="#ffd166" class="xs">در حال بررسی</text><text x="293" y="80" text-anchor="end" class="mono b">-۶۷ dBm</text><text x="293" y="104" text-anchor="end" class="m xs">RX 72 Mbps • 6d2h</text></g>
 <g transform="translate(1112 652)"><rect width="316" height="132" rx="14" fill="#0e1b2e" stroke="#d3dbe7"/><rect width="316" height="5" rx="3" fill="#d94b5b"/><rect x="20" y="24" width="44" height="44" rx="11" fill="#18243f"/><text x="42" y="52" text-anchor="middle" fill="#00a884" class="b">ST</text><text x="82" y="34" class="b">نگهبانی</text><text x="82" y="55" class="mono xs">10.42.3.14</text><rect x="211" y="25" width="82" height="24" rx="12" fill="#351923"/><text x="252" y="41" text-anchor="middle" fill="#aa3044" class="xs">آفلاین</text><text x="293" y="80" text-anchor="end" class="mono b">—</text><text x="293" y="104" text-anchor="end" class="m xs">سه بار عدم پاسخ</text></g>
 <rect x="54" y="850" width="112" height="28" rx="14" fill="#103547" stroke="#23876f"/><text x="110" y="869" text-anchor="middle" fill="#76f7d5" class="xs">نسخه ۰.۵.۲</text>
</svg>
