<svg xmlns="http://www.w3.org/2000/svg" width="1600" height="900" viewBox="0 0 1600 900">
 <defs><filter id="s"><feDropShadow dx="0" dy="5" stdDeviation="10" flood-color="#17223a" flood-opacity=".10"/></filter><style>text{font-family:Tahoma,"Segoe UI",Arial,sans-serif;fill:#edf6ff}.w{fill:#fff}.m{fill:#a9bad0}.sm{font-size:12px}.xs{font-size:10px}.b{font-size:14px;font-weight:700}.t{font-size:25px;font-weight:900}.mono{font-family:Consolas,monospace}</style></defs>
 <rect width="1600" height="900" fill="#07111f"/><rect width="1600" height="82" fill="#17223a"/><rect x="1528" y="18" width="46" height="46" rx="13" fill="#00a884"/><text x="1551" y="48" text-anchor="middle" class="w b">IP</text><text x="1510" y="38" text-anchor="end" class="w" font-size="16" font-weight="900">EMS IPAM</text><text x="1510" y="57" text-anchor="end" fill="#bac6da" class="xs">توسعه و مدیریت IP</text>
 <rect x="1050" y="20" width="430" height="42" rx="11" fill="#111b31" stroke="#394760"/><rect x="1265" y="25" width="104" height="32" rx="8" fill="#00a884"/><text x="1423" y="46" text-anchor="middle" fill="#c9d8ea" class="b">شرکت‌ها</text><text x="1317" y="46" text-anchor="middle" class="w b">مدیریت IP</text><text x="1205" y="46" text-anchor="middle" fill="#c9d8ea" class="b">تجهیزات</text><text x="1110" y="46" text-anchor="middle" fill="#c9d8ea" class="b">رادیوها</text><rect x="610" y="20" width="410" height="42" rx="10" fill="#202d47" stroke="#3b4963"/><text x="995" y="46" text-anchor="end" fill="#a9bad0" class="sm">جست‌وجوی سریع IP، نام سیستم، MAC یا رنج…</text>
 <text x="1545" y="122" text-anchor="end" class="m sm">شعبه قزوین ← شبکه داخلی</text><text x="1545" y="159" text-anchor="end" class="t mono">10.42.0.0/16</text><text x="1545" y="186" text-anchor="end" class="m sm">مرز هر زیرشبکه، درصد مصرف و رنگ تخصیص در نمای عمودی مشخص است.</text>
 <g transform="translate(54 112)"><rect width="240" height="78" rx="13" fill="#0e1b2e" stroke="#29415d"/><text x="215" y="26" text-anchor="end" class="m sm">کل IP</text><text x="215" y="58" text-anchor="end" font-size="23" font-weight="900">۶۵٬۵۳۶</text></g><g transform="translate(310 112)"><rect width="240" height="78" rx="13" fill="#0e1b2e" stroke="#29415d"/><text x="215" y="26" text-anchor="end" class="m sm">تخصیص‌یافته</text><text x="215" y="58" text-anchor="end" font-size="23" font-weight="900">۱۰٬۲۴۰</text></g><g transform="translate(566 112)"><rect width="240" height="78" rx="13" fill="#0e1b2e" stroke="#29415d"/><text x="215" y="26" text-anchor="end" class="m sm">IP دارای تجهیز</text><text x="215" y="58" text-anchor="end" font-size="23" font-weight="900">۱۴</text></g>
 <rect x="54" y="214" width="1491" height="58" rx="13" fill="#0e1b2e" stroke="#29415d"/><text x="1515" y="249" text-anchor="end" class="b">نمای عمودی</text><g><rect x="1270" y="226" width="52" height="32" rx="7" fill="#103547" stroke="#b9c7f3"/><text x="1296" y="247" text-anchor="middle" fill="#00a884" class="b">/24</text><rect x="1210" y="226" width="52" height="32" rx="7" fill="#0e1b2e" stroke="#29415d"/><text x="1236" y="247" text-anchor="middle" class="sm">/22</text><rect x="1150" y="226" width="52" height="32" rx="7" fill="#0e1b2e" stroke="#29415d"/><text x="1176" y="247" text-anchor="middle" class="sm">/20</text><rect x="1090" y="226" width="52" height="32" rx="7" fill="#0e1b2e" stroke="#29415d"/><text x="1116" y="247" text-anchor="middle" class="sm">/16</text></g><rect x="54" y="226" width="155" height="32" rx="8" fill="#00a884"/><text x="131" y="247" text-anchor="middle" class="w sm">خروجی قابل انتقال</text><rect x="220" y="226" width="140" height="32" rx="8" fill="#0e1b2e" stroke="#29415d"/><text x="290" y="247" text-anchor="middle" class="sm">ورود بسته زیرشبکه</text>
 <rect x="54" y="292" width="1491" height="555" rx="15" fill="#0e1b2e" stroke="#35506e" stroke-width="2" filter="url(#s)"/><path d="M69 292h1461a15 15 0 0 1 15 15v37H54v-37a15 15 0 0 1 15-15z" fill="#17223a"/><g class="w b" text-anchor="middle"><text x="185" y="326">شبکه /24</text><text x="400" y="326">نام و کاربرد</text><text x="670" y="326">رنج والد</text><text x="920" y="326">VLAN</text><text x="1115" y="326">مصرف</text><text x="1355" y="326">وضعیت</text></g>
 <g stroke="#29415d"><path d="M54 406h1491M54 468h1491M54 530h1491M54 592h1491M54 654h1491M54 716h1491M54 778h1491"/></g>
 <g><rect x="56" y="345" width="1487" height="60" fill="#10233a"/><rect x="56" y="407" width="1487" height="60" fill="#0e1b2e"/><rect x="56" y="469" width="1487" height="60" fill="#102c29"/><rect x="56" y="531" width="1487" height="60" fill="#241d3b"/><rect x="56" y="593" width="1487" height="60" fill="#332713"/><rect x="56" y="655" width="1487" height="60" fill="#0e1b2e"/><rect x="56" y="717" width="1487" height="60" fill="#101d2c"/></g>
 <g class="mono b" text-anchor="middle"><text x="185" y="382">10.42.0.0/24</text><text x="185" y="444">10.42.1.0/24</text><text x="185" y="506">10.42.2.0/24</text><text x="185" y="568">10.42.3.0/24</text><text x="185" y="630">10.42.4.0/24</text><text x="185" y="692">10.42.5.0/24</text><text x="185" y="754">10.42.6.0/24</text></g><g class="b" text-anchor="middle"><text x="400" y="382">زیرساخت شبکه</text><text x="400" y="444">رزرو توسعه</text><text x="400" y="506">سرورها</text><text x="400" y="568">کاربران</text><text x="400" y="630">دوربین‌ها</text><text x="400" y="692">تلفن‌ها</text><text x="400" y="754">آزاد</text></g><g class="mono sm" text-anchor="middle"><text x="670" y="382">10.42.0.0/20</text><text x="670" y="444">10.42.0.0/20</text><text x="670" y="506">10.42.0.0/20</text><text x="670" y="568">10.42.0.0/20</text><text x="670" y="630">10.42.0.0/20</text><text x="670" y="692">10.42.0.0/20</text><text x="670" y="754">—</text></g><g class="b" text-anchor="middle"><text x="920" y="382">۲۲</text><text x="920" y="444">—</text><text x="920" y="506">۲۷۱</text><text x="920" y="568">۶۴</text><text x="920" y="630">۱۲۰</text><text x="920" y="692">۲۴</text><text x="920" y="754">—</text></g>
 <g><rect x="1035" y="368" width="160" height="8" rx="4" fill="#35506e"/><rect x="1035" y="368" width="106" height="8" rx="4" fill="#00a884"/><text x="1115" y="393" text-anchor="middle" class="xs">۶۶٪</text><rect x="1035" y="492" width="160" height="8" rx="4" fill="#35506e"/><rect x="1035" y="492" width="74" height="8" rx="4" fill="#2fa36f"/><text x="1115" y="517" text-anchor="middle" class="xs">۴۶٪</text><rect x="1035" y="554" width="160" height="8" rx="4" fill="#35506e"/><rect x="1035" y="554" width="142" height="8" rx="4" fill="#805ad5"/><text x="1115" y="579" text-anchor="middle" class="xs">۸۹٪</text></g><g text-anchor="middle"><text x="1355" y="382" fill="#5df2ad" class="b">فعال</text><text x="1355" y="444" fill="#ffd166" class="b">رزروشده</text><text x="1355" y="506" fill="#5df2ad" class="b">فعال</text><text x="1355" y="568" fill="#5df2ad" class="b">فعال</text><text x="1355" y="630" fill="#5df2ad" class="b">فعال</text><text x="1355" y="692" fill="#5df2ad" class="b">فعال</text><text x="1355" y="754" class="m b">ثبت نشده</text></g>
</svg>
